<?xml version="1.0" encoding="utf-8"?>
<!-- Generator: Adobe Illustrator 25.0.0, SVG Export Plug-In . SVG Version: 6.00 Build 0)  -->
<svg version="1.1" id="Layer_1" xmlns="http://www.w3.org/2000/svg" xmlns:xlink="http://www.w3.org/1999/xlink" x="0px" y="0px"
	 viewBox="0 0 512 512" style="enable-background:new 0 0 512 512;" xml:space="preserve">
<style type="text/css">
	.st0{fill:#FFCC00;}
</style>
<path class="st0" d="M437,75C337-25,175.1-25,75,75C-25,175-25,336.9,75,437c100,100,261.9,100,362,0C537,337,537,175.1,437,75z
	 M256,469.9c-117.9,0-213.9-96-213.9-213.9S138.1,42.1,256,42.1s213.9,96,213.9,213.9S373.9,469.9,256,469.9L256,469.9z"/>
<path class="st0" d="M288,128.2h-74.7c-11.6,0-21,9.4-21,21V235h-21.7c-11.6,0-21,9.4-21,21c0,11.6,9.4,21,21,21h21.7v22h-21.7
	c-11.6,0-21,9.4-21,21c0,11.6,9.4,21,21,21h21.7v21.7c0,11.6,9.4,21,21,21s21-9.4,21-21v-21.7h43c11.6,0,21-9.4,21-21
	c0-11.6-9.4-21-21-21h-43v-22H288c41,0,74.4-33.4,74.4-74.4C362.4,161.6,329.1,128.2,288,128.2z M288,235h-53.7v-64.7H288
	c17.8,0,32.4,14.5,32.4,32.4S305.9,235,288,235L288,235z"/>
</svg>
