<svg id="Layer_1" data-name="Layer 1" xmlns="http://www.w3.org/2000/svg" viewBox="0 0 18.5 23.5"><defs><style>.cls-1{fill:#a3a3a3;fill-rule:evenodd;}</style></defs><path class="cls-1" d="M49,49.88V31.83a1.07,1.07,0,0,0-1-1.1H34.8a1.07,1.07,0,0,0-1,1.1V49.88a1.08,1.08,0,0,0,1,1.1H47.93A1.08,1.08,0,0,0,49,49.88Zm-1-20.78a2.73,2.73,0,0,1,2.68,2.78V49.82a2.73,2.73,0,0,1-2.68,2.78H34.8a2.74,2.74,0,0,1-2.69-2.78V31.88A2.74,2.74,0,0,1,34.8,29.1ZM35.13,49.4V36H47.6V49.4Zm.7-15.69a.69.69,0,1,1,0-1.38h5.53a.69.69,0,1,1,0,1.38Z" transform="translate(-32.11 -29.1)"/></svg>